PathFileType	4	(X/Y/Z)	C:/Users/beibeiliu/ov580/test_trc/User2\sequence.34_training_dense_left.trc
DataRate	CameraRate	NumFrames	NumMarkers	Units	OrigDataRate	OrigDataStartFrame	OrigNumFrames
120	120	13	19	mm	120	204	326
Frame#	Time	ThumbCMC			ThumbMCP			ThumbIP			ThumbTip			IndexMCP			IndexPIP			IndexTip			MiddleMCP			MiddlePIP			MiddleTip			RingMCP			RingPIP			RingTip			PinkyMCP			PinkyPIP			PinkyTip			BackHand1			BackHand2			BackHand3	
		X0	Y0	Z0	X1	Y1	Z1	X2	Y2	Z2	X3	Y3	Z3	X4	Y4	Z4	X5	Y5	Z5	X6	Y6	Z6	X7	Y7	Z7	X8	Y8	Z8	X9	Y9	Z9	X10	Y10	Z10	X11	Y11	Z11	X12	Y12	Z12	X13	Y13	Z13	X14	Y14	Z14	X15	Y15	Z15	X16	Y16	Z16	X17	Y17	Z17	X18	Y18	Z18	
203	1.69167	-180.616	-6.08696	65.2512	-164.446	3.36945	35.8112	-146.458	-1.08249	6.00836	-133.312	-19.6837	-7.23288	-159.103	-42.952	-5.88012	-126.463	-37.054	-7.28964	-132.869	-27.7255	28.7787	-152.272	-61.9147	-2.05347	-116.696	-52.5046	5.99501	-130.245	-40.0317	40.3338	-140.892	-81.0093	10.9206	-114.676	-65.3072	23.3868	-135.828	-55.8933	51.7396	-140.763	-93.5588	27.835	-114.611	-74.6017	37.857	-134.433	-63.7421	57.7819	-189.224	-79.1691	50.3424	-203.544	-73.4833	85.3582	-201.772	-37.8263	57.1983	
204	1.7	-178.759	-9.90643	66.2991	-161.704	1.82291	37.4908	-142.919	-3.35814	12.297	-127.851	-21.7904	-9.03089	-155.609	-39.6244	-9.01088	-125.128	-40.4327	-2.0776	-134.41	-27.2607	31.3791	-150.415	-64.9566	-1.60106	-116.219	-56.4214	5.52412	-129.567	-44.7712	43.1919	-141.183	-78.5638	9.77006	-114.15	-66.2391	23.582	-131.612	-56.0459	49.8577	-140.212	-94.5564	27.5609	-113.757	-76.2703	37.4566	-132.86	-64.869	61.3322	-190.574	-75.702	51.0901	-202.695	-69.2751	83.5481	-202.907	-40.0187	59.1498	
205	1.70833	-177.243	-6.22502	64.4335	-158.232	1.76278	40.5645	-139.107	-7.3887	8.65036	-123.92	-19.8813	-9.18734	-157.993	-41.13	-5.2035	-123.873	-35.8254	-2.49858	-131.553	-28.8444	32.0136	-150.265	-62.5584	-2.42486	-115.038	-57.7569	8.513	-130.674	-43.1794	44.8401	-137.359	-82.6935	9.75877	-112.354	-68.7535	24.7498	-131.248	-53.1595	48.3855	-136.773	-92.9352	24.5617	-113.278	-76.5647	37.8877	-131.402	-61.5028	58.3945	-191.661	-76.9681	51.0842	-200.987	-73.9739	85.8131	-201.68	-42.1003	59.95	
206	1.71667	-173.932	-8.88179	63.7851	-154.379	-1.36193	39.3352	-135.652	-9.64756	10.5497	-120.422	-23.2752	-11.7573	-154.882	-44.3459	-4.92757	-121.494	-37.8002	0.451483	-129.99	-28.9447	33.5553	-146.945	-63.0773	-1.82258	-113.926	-59.1563	11.7384	-128.314	-42.6184	44.4477	-139.273	-83.6347	11.8881	-112.038	-69.0089	23.5734	-133.88	-57.4905	52.108	-139.42	-95.3299	28.8739	-113.084	-76.6172	37.9122	-133.946	-61.0066	60.5477	-190.57	-76.5706	51.197	-201.307	-72.7607	87.7626	-198.986	-39.5316	57.341	
207	1.725	-171.214	-9.82931	66.7977	-149.861	-1.92763	40.3343	-131.898	-9.6494	8.988	-116.7	-20.7955	-9.86763	-151.334	-43.0446	-5.97936	-120.617	-39.4524	-0.83564	-126.218	-32.4823	32.9219	-144.832	-65.9227	-0.26428	-112.34	-60.1157	11.6315	-127.073	-45.1953	48.2643	-137.559	-80.3548	10.9796	-111.171	-74.4094	25.8219	-130.813	-57.5093	50.6376	-135.399	-99.0772	29.0783	-109.753	-80.8901	40.6298	-130.791	-67.1624	64.4508	-188.771	-76.3705	53.4644	-200.636	-71.5836	84.8721	-197.687	-40.0107	62.3793	
208	1.73333	-165.886	-10.242	69.6758	-146.097	-6.59966	41.4938	-125.975	-10.5007	10.5044	-111.292	-26.3596	-9.67333	-148.131	-46.5078	-3.72263	-115.42	-41.4707	1.05145	-121.561	-35.8427	35.0112	-144.628	-68.4496	1.81226	-110.267	-61.6203	13.8705	-126.45	-47.9598	51.2861	-136.599	-87.4573	14.0166	-110.319	-71.8236	28.0414	-131.848	-59.838	54.3247	-135.819	-97.1911	27.8046	-110.117	-80.7889	42.746	-125.575	-68.7584	63.2446	-186.732	-77.0084	56.3756	-197.531	-72.0868	88.0281	-193.999	-42.2461	62.742	
209	1.74167	-160.053	-12.7116	70.7727	-139.114	-6.62516	45.8077	-120.03	-16.0114	11.4821	-107.124	-29.1166	-5.06249	-146.245	-45.8578	-1.11559	-112.754	-48.1696	3.21679	-118.414	-41.5095	38.7596	-140.44	-71.9805	3.79997	-105.39	-66.3232	18.1563	-120.283	-47.5468	51.181	-135.07	-86.3532	14.3229	-106.566	-76.957	27.4879	-128.767	-61.7709	55.8544	-133.137	-102.39	31.0658	-107.033	-87.7606	46.1652	-128.432	-71.6936	67.6319	-185.382	-79.0898	55.7598	-194.832	-69.6401	83.7793	-191.753	-42.0112	64.5447	
210	1.75	-153.576	-14.7521	70.73	-130.539	-10.5314	48.2875	-113.192	-19.8163	17.9516	-99.5464	-32.2844	-3.85459	-136.935	-43.9162	-2.18149	-104.629	-48.2573	6.71597	-111.514	-45.5007	40.2472	-134.309	-70.9759	4.34947	-103.087	-68.8997	16.9706	-118.558	-53.4934	55.7769	-130.5	-90.3337	16.8281	-104.981	-81.2124	28.9659	-123.489	-65.5964	56.9567	-133.372	-105.818	31.4466	-105.328	-91.2951	47.659	-124.527	-74.0205	68.1869	-184.377	-75.5634	57.4757	-191.949	-70.41	91.0178	-184.497	-39.4853	62.4741	
211	1.75833	-144.367	-17.7883	77.6056	-122.496	-14.8101	50.5224	-103.401	-20.6544	20.1226	-93.0356	-33.8519	3.51743	-130.246	-42.1598	0.0508521	-101.692	-53.1386	7.26065	-108.027	-48.3957	45.3058	-133.401	-70.6515	6.03109	-100.334	-73.272	18.0812	-114.4	-58.9934	57.3999	-127.335	-90.8068	15.3148	-102.105	-85.4444	33.5271	-123.178	-68.8523	60.0495	-131.813	-104.217	28.6077	-106.494	-95.9965	45.1889	-120.072	-78.0709	68.4372	-181.817	-75.498	55.1705	-189.655	-69.0338	87.4358	-179.244	-33.0869	65.4147	
212	1.76667	-133.525	-14.4921	82.3165	-110.041	-11.2096	59.2054	-95.9245	-22.3117	25.5676	-87.3504	-36.5	7.00081	-124.795	-40.0349	4.47243	-96.8903	-53.802	8.66053	-101.86	-49.5718	45.7218	-131.092	-61.2953	7.07711	-100.35	-78.0728	19.8085	-109.315	-61.7022	56.2948	-130.886	-85.5645	14.7266	-103.6	-87.4903	33.0605	-117.807	-73.4206	59.291	-139.374	-99.7889	29.1424	-108.403	-99.6549	43.8061	-120.174	-86.6993	70.2542	-179.574	-68.8782	57.6486	-189.198	-62.9785	90.964	-170.575	-34.1106	69.7297	
213	1.775	-128.43	-21.8112	90.6073	-101.496	-14.488	64.947	-91.2803	-23.8796	31.9759	-83.967	-36.5069	5.83875	-120.016	-39.2172	6.61581	-93.9528	-54.4974	10.7384	-100.079	-55.4484	45.4061	-125.915	-61.102	5.50694	-99.5117	-76.851	16.2346	-108.731	-69.0544	55.8801	-132.738	-82.4218	13.6248	-104.985	-90.358	29.3395	-115.519	-74.7917	58.4974	-139.38	-96.0343	26.1806	-110.685	-99.1717	42.1727	-120.423	-86.5546	72.0973	-177.97	-62.4877	57.2224	-185.42	-59.2525	90.9357	-163.008	-27.0565	76.8643	
214	1.78333	-123.116	-22.5884	94.1478	-99.4715	-17.3174	67.2565	-86.9719	-24.0747	35.2183	-81.2807	-35.9614	14.1771	-116.443	-34.0638	9.28364	-94.5874	-55.3279	11.0475	-97.0947	-52.4734	48.0152	-126.982	-53.6646	7.71677	-96.1891	-73.4909	18.0753	-105.345	-65.6684	55.4747	-133.825	-78.3393	12.4613	-108.083	-91.902	24.0519	-118.801	-77.1544	58.0303	-142.294	-92.5666	22.9993	-113.074	-101.414	39.8866	-121.487	-89.0825	70.5972	-175.743	-53.6268	55.7409	-182.615	-53.3238	90.9624	-161.236	-25.3408	77.9424	
215	1.79167	-120.162	-25.7901	94.6961	-96.4594	-17.88	72.3188	-83.3945	-22.5984	39.2085	-78.8545	-33.2203	17.7213	-116.844	-29.8094	15.1056	-93.8412	-52.3653	8.49062	-94.6136	-56.4197	44.0043	-124.741	-52.2216	6.16438	-99.1539	-72.0713	12.5594	-106.105	-66.3141	55.2423	-130.356	-72.3081	8.12977	-110.912	-90.8486	20.8342	-115.893	-76.9132	54.2722	-143.931	-89.4886	18.4588	-116.405	-100.085	31.463	-120.08	-89.4716	65.023	-173.775	-51.2886	57.0297	-182.212	-47.5931	92.7835	-156.084	-22.0545	77.908	
